<?xml version="1.0" standalone="no"?>
<!DOCTYPE svg PUBLIC "-//W3C//DTD SVG 20010904//EN"
 "http://www.w3.org/TR/2001/REC-SVG-20010904/DTD/svg10.dtd">
<svg version="1.0" xmlns="http://www.w3.org/2000/svg"
 width="920.000000pt" height="920.000000pt" viewBox="0 0 920.000000 920.000000"
 preserveAspectRatio="xMidYMid meet">
<metadata>
Created by potrace 1.14, written by Peter Selinger 2001-2017
</metadata>
<g transform="translate(0.000000,920.000000) scale(0.100000,-0.100000)"
fill="#000000" stroke="none">
<path d="M4535 6558 c-280 -70 -1410 -348 -1436 -353 -9 -2 -33 -8 -55 -14
-29 -8 -423 -105 -596 -147 -10 -2 -27 -6 -38 -9 -11 -3 -28 -7 -37 -9 -34 -8
-803 -198 -1258 -311 -253 -62 -585 -144 -739 -182 -258 -63 -303 -79 -281
-101 3 -4 219 -7 478 -8 558 -1 556 -1 487 92 l-29 40 182 38 c100 21 209 44
242 52 33 7 127 27 209 44 82 18 158 34 170 36 11 3 41 9 66 14 25 5 74 16
110 24 36 8 79 17 95 19 17 3 50 10 75 15 25 6 56 13 70 16 14 2 102 21 195
41 94 20 184 39 200 41 17 3 55 11 85 19 30 7 71 16 90 19 39 7 46 8 150 31
41 9 84 18 95 21 11 2 34 7 50 10 17 3 50 10 75 15 25 6 54 12 64 15 52 10
223 46 241 50 11 3 52 11 90 19 137 28 402 84 516 109 134 29 313 66 349 72
14 3 48 10 75 17 46 12 62 11 205 -20 85 -18 168 -35 183 -38 16 -3 90 -19
165 -35 76 -16 236 -50 357 -75 121 -25 324 -68 450 -95 127 -27 246 -52 265
-55 19 -3 60 -12 90 -19 30 -8 73 -17 95 -22 22 -4 45 -8 50 -9 91 -21 208
-45 235 -50 19 -3 51 -10 70 -15 19 -5 46 -11 60 -14 14 -2 79 -16 145 -30 66
-14 135 -28 154 -31 19 -3 37 -7 40 -9 3 -2 24 -7 46 -11 22 -4 45 -8 50 -9 6
-1 37 -8 70 -15 33 -7 78 -17 100 -21 92 -21 272 -59 295 -63 14 -3 81 -17
150 -32 69 -14 134 -28 145 -31 38 -8 177 -34 182 -34 2 0 -5 -12 -16 -26 -26
-33 -26 -55 -2 -85 l19 -24 462 0 c254 0 466 3 472 6 33 20 -16 38 -283 104
-156 38 -288 70 -294 71 -5 1 -120 30 -255 64 -135 34 -252 63 -260 65 -8 2
-64 15 -125 30 -60 15 -117 28 -125 30 -8 2 -208 51 -445 110 -599 148 -917
226 -935 230 -8 2 -145 36 -304 75 -159 39 -296 73 -305 75 -9 2 -108 27 -221
55 -113 28 -351 87 -530 130 -179 44 -339 84 -356 90 -35 11 -35 11 -89 -2z"/>
<path d="M1200 5530 l-45 -5 -2 -720 c-1 -396 -3 -1037 -4 -1425 l-1 -705 300
0 c342 -1 423 8 485 52 48 34 82 93 96 165 14 74 7 373 -10 422 -7 21 -32 58
-55 82 l-43 43 34 34 c52 52 69 146 54 294 -23 227 -135 317 -404 326 l-80 3
-2 530 c-1 459 0 524 12 489 8 -22 51 -186 95 -365 87 -345 159 -627 165 -647
3 -10 40 -13 140 -13 101 0 135 -3 136 -12 1 -7 3 -321 4 -698 1 -377 3 -690
4 -697 1 -17 420 -16 422 1 1 6 3 135 4 286 1 151 3 284 4 295 l2 20 9 -20 c5
-11 9 -149 9 -307 l1 -288 200 2 c134 1 200 5 203 12 2 6 3 139 2 296 -3 272
-4 287 -25 333 -12 26 -35 58 -50 71 l-28 23 27 21 c50 36 72 104 75 231 4
127 -18 234 -58 296 -44 68 -89 97 -181 121 l-50 12 65 1 65 1 0 720 0 720
-65 1 c-274 3 -513 0 -520 -7 -4 -5 -12 -29 -18 -54 -18 -83 -202 -794 -207
-798 -3 -3 -5 -1 -5 4 0 5 -36 149 -80 319 -44 171 -92 361 -108 422 l-27 113
-85 0 c-47 1 -159 2 -250 3 -91 1 -185 0 -210 -3z m1206 -1425 c-5 -13 -272
-12 -269 1 0 5 31 126 68 269 37 143 68 267 70 275 2 8 13 53 25 100 12 47 23
92 25 100 2 8 21 81 42 162 l38 147 3 -522 c1 -287 0 -527 -2 -532z m-804
-337 c8 -22 10 -143 3 -171 -4 -15 -12 -27 -19 -27 -8 0 -11 31 -11 105 0 72
4 105 11 105 7 0 14 -6 16 -12z m926 -74 c3 -81 -4 -132 -16 -120 -4 4 -7 52
-7 107 0 120 19 131 23 13z m-918 -554 c0 -123 -4 -150 -24 -150 -8 0 -11 39
-10 138 2 166 1 157 19 142 12 -10 15 -38 15 -130z"/>
<path d="M3388 5532 c-9 -2 -19 -11 -23 -20 -4 -9 -74 -197 -157 -417 -82
-220 -201 -535 -263 -700 l-112 -300 191 -5 c105 -3 184 -7 175 -8 -36 -5
-135 -90 -167 -144 -34 -58 -38 -69 -52 -158 -11 -75 -10 -730 2 -805 24 -155
116 -260 268 -305 234 -70 480 14 564 191 36 78 43 162 43 544 l0 340 95 3 96
3 0 -488 c0 -268 1 -512 1 -540 l1 -53 210 1 c153 0 210 4 211 12 1 7 2 248 3
537 l1 525 100 2 100 2 0 -537 0 -537 213 -2 212 -2 1 22 c0 12 1 139 1 283 0
207 3 261 13 261 10 0 13 -54 13 -261 0 -144 1 -271 1 -283 l1 -22 212 2 213
2 0 705 0 705 26 3 27 3 0 -693 c1 -381 1 -701 1 -710 1 -15 29 -17 341 -17
l340 0 0 174 c0 96 -3 175 -7 176 -5 0 -61 1 -125 1 -113 1 -118 2 -119 22 0
12 -1 60 -2 107 l-2 87 98 -2 c55 0 104 2 110 6 15 9 17 328 2 329 -5 0 -51 1
-102 0 -51 0 -95 4 -98 10 -6 8 -9 96 -6 152 1 15 13 17 116 17 l115 0 0 171
c0 157 1 170 18 167 16 -3 17 -45 17 -708 l0 -705 213 -1 212 -2 1 227 c0 124
0 259 -1 299 -1 45 3 72 9 72 6 0 12 -3 12 -7 5 -30 7 -100 8 -330 l1 -261
200 0 c145 0 200 3 201 11 7 83 -1 561 -10 593 -12 45 -65 124 -82 124 -7 0 0
9 15 21 56 44 77 116 77 265 1 227 -71 350 -227 388 l-59 14 75 1 75 1 0 390
c0 290 3 386 11 377 6 -6 40 -55 76 -107 66 -97 131 -192 322 -472 83 -122
103 -158 89 -159 -69 -3 -163 -37 -221 -80 -82 -60 -121 -168 -120 -331 2
-203 53 -290 245 -416 40 -26 73 -49 73 -52 0 -3 -69 -5 -152 -5 l-153 0 -1
-120 c-2 -239 42 -338 183 -412 187 -99 473 -66 601 68 61 63 77 124 76 294
-1 240 -37 312 -219 441 -38 28 -90 62 -115 77 l-45 27 179 0 178 0 -5 128
c-3 80 -11 146 -22 179 -20 60 -70 115 -134 148 l-46 24 80 1 80 0 0 720 0
720 -65 1 c-36 0 -130 1 -210 1 l-145 1 0 -396 c0 -217 -2 -394 -5 -392 -3 2
-77 108 -164 237 -86 128 -202 298 -257 378 -55 80 -103 151 -108 158 -6 10
-55 14 -214 15 -114 1 -208 0 -208 -3 -1 -3 -2 -327 -3 -720 l-1 -715 -115 -1
c-63 0 -120 1 -127 4 -8 2 -11 185 -11 713 0 391 -2 712 -4 715 -4 3 -350 7
-423 5 -20 -1 -20 -7 -20 -712 0 -468 -3 -713 -10 -717 -34 -22 -36 -20 -115
133 -35 66 -85 163 -112 214 -70 134 -138 215 -210 250 l-58 28 42 12 c145 44
250 150 281 286 34 149 -5 302 -100 392 -67 64 -141 93 -274 107 -43 5 -765
10 -889 7 l-25 -1 0 -711 c0 -391 -3 -716 -7 -722 -14 -22 -34 15 -87 158 -28
77 -56 149 -61 160 -5 11 -19 47 -30 80 -12 33 -25 69 -30 80 -5 11 -66 173
-135 360 -70 187 -137 367 -150 400 -13 33 -33 87 -45 120 -13 33 -26 64 -30
68 -7 8 -438 16 -472 9z m1822 -314 c46 -20 72 -60 75 -114 4 -74 -46 -131
-122 -141 -21 -2 -51 -7 -68 -11 -16 -4 -71 -6 -121 -4 l-91 3 0 143 0 144
146 -2 c105 -2 156 -7 181 -18z m-1519 -326 l76 -247 -150 -3 c-82 -1 -152 -1
-154 2 -2 2 4 30 13 62 10 33 19 64 20 69 1 6 15 53 32 105 66 210 76 245 74
253 -1 4 1 7 6 7 4 0 41 -111 83 -248z m1291 -227 c59 -13 89 -60 309 -472 27
-50 49 -93 49 -95 0 -2 -47 -3 -105 -3 -67 1 -105 -3 -106 -10 0 -5 -1 -111
-2 -235 -1 -142 -6 -225 -12 -225 -6 0 -11 75 -12 200 -1 110 -2 216 -2 235
l-1 35 -107 0 -108 0 -2 270 c-1 149 0 280 3 292 4 22 22 24 96 8z m-1087
-449 c19 -60 32 -112 30 -114 -2 -2 -22 -5 -44 -6 l-41 -1 -1 -120 c-1 -116
-1 -119 -16 -85 -52 119 -161 200 -308 226 -43 8 -192 7 -204 -1 -17 -10 -13
10 19 115 l30 97 250 0 250 0 35 -111z m-466 -838 c0 -378 -5 -459 -23 -413
-8 21 -7 804 1 833 17 67 23 -40 22 -420z m4195 357 c3 -81 -7 -104 -25 -58
-14 38 -14 111 2 129 18 22 21 13 23 -71z m-869 16 c10 -48 2 -170 -12 -175
-10 -4 -13 19 -13 99 0 101 12 136 25 76z m884 -642 c11 -48 6 -138 -7 -151
-23 -23 -35 9 -37 104 -1 51 0 97 3 101 8 15 33 -19 41 -54z"/>
<path d="M8193 5312 c-35 -3 -43 -7 -43 -23 0 -10 7 -19 15 -19 16 0 17 -3 17
-102 l0 -68 29 0 29 0 0 85 c0 69 3 85 15 85 9 0 15 9 15 23 0 24 -1 24 -77
19z"/>
<path d="M8280 5206 l0 -106 25 0 c22 0 25 4 25 37 0 42 10 40 13 -3 2 -22 8
-30 25 -32 19 -3 22 1 22 27 0 17 4 31 8 31 5 0 7 -13 4 -30 -4 -27 -1 -30 22
-30 20 0 26 5 27 23 1 31 1 159 0 175 -1 7 -16 12 -42 12 -32 0 -40 -3 -35
-15 3 -8 2 -23 -2 -32 -5 -14 -8 -12 -12 12 -4 26 -10 30 -43 33 l-37 3 0
-105z"/>
<path d="M8443 2929 c-34 -12 -43 -41 -43 -133 0 -102 15 -126 78 -126 49 0
82 32 79 75 -2 26 -7 30 -35 33 -30 3 -32 1 -32 -27 0 -36 -17 -42 -22 -8 -2
12 -1 50 0 85 4 67 22 87 22 24 0 -39 2 -40 62 -33 13 2 5 72 -10 91 -19 22
-66 31 -99 19z"/>
<path d="M8139 2923 c-1 -10 -1 -212 0 -236 1 -12 8 -17 24 -15 43 6 45 13 46
138 l0 120 -35 0 c-19 0 -34 -3 -35 -7z"/>
<path d="M8230 2802 l0 -129 28 2 c25 1 27 4 27 47 0 54 6 53 20 -5 10 -37 14
-42 40 -42 l30 0 3 128 3 127 -31 0 c-29 0 -30 -1 -27 -41 5 -55 -7 -57 -21
-3 -11 40 -15 44 -42 44 l-30 0 0 -128z"/>
<path d="M8570 2699 c0 -21 5 -26 23 -25 16 1 23 8 25 28 3 24 0 28 -22 26
-21 -2 -26 -8 -26 -29z"/>
</g>
</svg>
